# xmcd
#
# Track frame offsets:
#	150
#	17726
#	39914
#	71342
#	88629
#	114637
#	132665
#	151852
#	186063
#	212148
#	234969
#
# Disc length: 3505 seconds
#
# Revision: 0
# Processed by: cddbd v1.5.1PL2 Copyright (c) Steve Scherf et al.
# Submitted via: dBpowerAMP V4.0
#
DISCID=8a0daf0b
DTITLE=Jimmy James - Feels good
DYEAR=1900
DGENRE=Blues
TTITLE0=Ride that train
TTITLE1=Feels good
TTITLE2=Come back home
TTITLE3=Should've been gone
TTITLE4=Just one of those days
TTITLE5=Make you feel good
TTITLE6=Walking with my baby
TTITLE7=There used to be trees on Pine
TTITLE8=Power to choose
TTITLE9=Fool no more
TTITLE10=Starry Night
EXTD=
EXTT0=
EXTT1=
EXTT2=
EXTT3=
EXTT4=
EXTT5=
EXTT6=
EXTT7=
EXTT8=
EXTT9=
EXTT10=
PLAYORDER=
